<svg xmlns="http://www.w3.org/2000/svg" viewBox="0 0 1200 720" role="img" aria-labelledby="title desc">
  <title id="title">AI Habit Builder Tracker project card</title>
  <desc id="desc">AI-powered habit tracker with personalized plans, reminders, streaks, and progress summaries.</desc>
  <defs>
    <linearGradient id="bg" x1="0" y1="0" x2="1" y2="1">
      <stop offset="0%" stop-color="#07131E" />
      <stop offset="55%" stop-color="#0E2330" />
      <stop offset="100%" stop-color="#1A875F" />
    </linearGradient>
    <linearGradient id="screen" x1="0" y1="0" x2="1" y2="1">
      <stop offset="0%" stop-color="#E8FFF3" />
      <stop offset="100%" stop-color="#9CF2C2" />
    </linearGradient>
  </defs>
  <rect width="1200" height="720" rx="36" fill="url(#bg)" />
  <circle cx="1002" cy="118" r="136" fill="#9CF2C2" opacity=".16" />
  <circle cx="1110" cy="626" r="188" fill="#D7FFF0" opacity=".08" />
  <path d="M0 578C118 532 242 510 382 534C540 562 662 618 800 582C938 546 1042 502 1200 530V720H0Z" fill="#041016" opacity=".44" />
  <rect x="74" y="78" width="300" height="50" rx="25" fill="#FFFFFF" opacity=".11" />
  <text x="106" y="111" fill="#E6FFF3" font-family="Segoe UI, Arial, sans-serif" font-size="24" font-weight="700" letter-spacing="4">AI PRODUCTIVITY APP</text>
  <text x="74" y="224" fill="#FFFFFF" font-family="Segoe UI, Arial, sans-serif" font-size="78" font-weight="800">AI Habit Builder</text>
  <text x="74" y="300" fill="#FFFFFF" font-family="Segoe UI, Arial, sans-serif" font-size="78" font-weight="800">Tracker</text>
  <text x="74" y="386" fill="#DDFCEE" font-family="Segoe UI, Arial, sans-serif" font-size="30">Personalized habits, smart reminders, streaks,</text>
  <text x="74" y="426" fill="#DDFCEE" font-family="Segoe UI, Arial, sans-serif" font-size="30">and AI summaries for daily consistency.</text>
  <rect x="74" y="500" width="176" height="56" rx="28" fill="#FFFFFF" opacity=".14" />
  <rect x="266" y="500" width="182" height="56" rx="28" fill="#FFFFFF" opacity=".14" />
  <rect x="464" y="500" width="178" height="56" rx="28" fill="#FFFFFF" opacity=".14" />
  <text x="118" y="536" fill="#FFFFFF" font-family="Segoe UI, Arial, sans-serif" font-size="24" font-weight="700">Google Gemini</text>
  <text x="310" y="536" fill="#FFFFFF" font-family="Segoe UI, Arial, sans-serif" font-size="24" font-weight="700">Smart reminders</text>
  <text x="510" y="536" fill="#FFFFFF" font-family="Segoe UI, Arial, sans-serif" font-size="24" font-weight="700">Habit loops</text>
  <rect x="74" y="604" width="254" height="54" rx="27" fill="#08141A" opacity=".84" stroke="#9CF2C2" stroke-opacity=".5" />
  <circle cx="112" cy="631" r="9" fill="#9CF2C2" />
  <text x="136" y="639" fill="#EDFFF5" font-family="Segoe UI, Arial, sans-serif" font-size="23" font-weight="700">Live on Google Play</text>
  <rect x="788" y="112" width="274" height="496" rx="42" fill="#091116" stroke="#D7FFF0" stroke-opacity=".24" stroke-width="4" />
  <rect x="818" y="150" width="214" height="392" rx="28" fill="url(#screen)" />
  <circle cx="872" cy="218" r="22" fill="#0F2B2D" opacity=".2" />
  <rect x="914" y="198" width="86" height="20" rx="10" fill="#0F2B2D" opacity=".16" />
  <rect x="846" y="274" width="156" height="20" rx="10" fill="#0F2B2D" opacity=".18" />
  <rect x="846" y="314" width="182" height="20" rx="10" fill="#0F2B2D" opacity=".12" />
  <rect x="846" y="396" width="164" height="20" rx="10" fill="#0F2B2D" opacity=".18" />
  <rect x="846" y="438" width="136" height="20" rx="10" fill="#0F2B2D" opacity=".12" />
  <path d="M860 514c22-42 48-66 78-70c30-4 54 16 72 58c18-26 38-42 60-48" fill="none" stroke="#1A875F" stroke-width="16" stroke-linecap="round" stroke-linejoin="round" opacity=".62" />
  <rect x="874" y="636" width="102" height="8" rx="4" fill="#56766A" opacity=".7" />
</svg>
